<?xml version="1.0" standalone="no"?>
<!DOCTYPE svg PUBLIC "-//W3C//DTD SVG 20010904//EN"
 "http://www.w3.org/TR/2001/REC-SVG-20010904/DTD/svg10.dtd">
<svg version="1.0" xmlns="http://www.w3.org/2000/svg"
 width="700.000000pt" height="700.000000pt" viewBox="0 0 700.000000 700.000000"
 preserveAspectRatio="xMidYMid meet">
<metadata>
Created by potrace 1.14, written by Peter Selinger 2001-2017
</metadata>
<g transform="translate(0.000000,700.000000) scale(0.100000,-0.100000)"
fill="#000000" stroke="none">
<path d="M4575 6914 c-123 -29 -351 -159 -513 -291 -110 -90 -283 -281 -370
-410 -46 -68 -98 -175 -158 -328 -72 -186 -88 -255 -89 -382 0 -104 2 -114 23
-135 20 -21 32 -23 115 -23 145 0 358 70 538 177 237 141 496 434 617 698 77
166 98 228 128 375 42 205 33 301 -32 325 -37 14 -190 11 -259 -6z"/>
<path d="M4777 5344 c-1 -1 -49 -4 -107 -7 -247 -15 -438 -68 -720 -202 -188
-89 -241 -105 -342 -105 -105 0 -202 28 -431 124 -297 125 -367 146 -543 163
-113 10 -393 6 -478 -7 -200 -32 -391 -119 -636 -288 -89 -62 -265 -240 -361
-367 -122 -160 -172 -252 -269 -495 -94 -238 -143 -430 -165 -655 -3 -33 -8
-78 -10 -100 -6 -52 -6 -432 -1 -465 2 -14 7 -65 11 -115 10 -135 25 -227 81
-490 42 -201 67 -281 141 -464 103 -256 148 -349 244 -507 39 -65 90 -150 111
-187 120 -209 338 -510 480 -662 21 -22 38 -43 38 -47 0 -16 200 -184 295
-247 212 -142 274 -166 428 -170 119 -3 224 26 462 126 408 173 480 191 730
189 l160 -2 165 -51 c189 -59 264 -86 370 -135 213 -100 284 -112 433 -74 125
32 211 73 345 163 160 108 328 291 489 532 65 97 148 217 185 268 117 158 207
351 297 639 71 225 68 246 -54 322 -47 30 -91 59 -98 66 -6 6 -21 18 -33 26
-147 102 -368 368 -454 545 -139 290 -157 372 -154 735 3 309 54 488 214 755
62 102 131 179 223 248 39 30 111 92 160 138 85 82 87 85 87 129 -1 59 -9 71
-114 181 -183 189 -295 277 -469 367 -130 67 -246 101 -402 118 -52 6 -302 12
-308 8z"/>
</g>
</svg>
